<mxfile host="app.diagrams.net" modified="2023-10-12T08:13:11.659Z" agent="Mozilla/5.0 (Windows NT 10.0; Win64; x64) AppleWebKit/537.36 (KHTML, like Gecko) Chrome/117.0.0.0 Safari/537.36" etag="iKlar0xurD9gLBhlB5Hx" version="22.0.4" type="device">
  <diagram name="Strona-1" id="X-8ady7OADEMIf_tD8pi">
    <mxGraphModel dx="1434" dy="758" grid="1" gridSize="10" guides="1" tooltips="1" connect="1" arrows="1" fold="1" page="1" pageScale="1" pageWidth="827" pageHeight="1169" math="0" shadow="0">
      <root>
        <mxCell id="0" />
        <mxCell id="1" parent="0" />
        <mxCell id="kvpLkumY8ABK4PItpuo1-4" style="rounded=0;orthogonalLoop=1;jettySize=auto;html=1;exitX=1;exitY=0.5;exitDx=0;exitDy=0;entryX=0;entryY=0.5;entryDx=0;entryDy=0;endArrow=none;endFill=0;" edge="1" parent="1" source="kvpLkumY8ABK4PItpuo1-1" target="kvpLkumY8ABK4PItpuo1-2">
          <mxGeometry relative="1" as="geometry" />
        </mxCell>
        <mxCell id="kvpLkumY8ABK4PItpuo1-1" value="Pracownik" style="rounded=0;whiteSpace=wrap;html=1;" vertex="1" parent="1">
          <mxGeometry x="40" y="60" width="120" height="60" as="geometry" />
        </mxCell>
        <mxCell id="kvpLkumY8ABK4PItpuo1-9" style="edgeStyle=orthogonalEdgeStyle;rounded=0;orthogonalLoop=1;jettySize=auto;html=1;exitX=0.5;exitY=1;exitDx=0;exitDy=0;entryX=0.5;entryY=0;entryDx=0;entryDy=0;endArrow=none;endFill=0;" edge="1" parent="1" source="kvpLkumY8ABK4PItpuo1-2" target="kvpLkumY8ABK4PItpuo1-3">
          <mxGeometry relative="1" as="geometry" />
        </mxCell>
        <mxCell id="kvpLkumY8ABK4PItpuo1-2" value="Klient" style="rounded=0;whiteSpace=wrap;html=1;" vertex="1" parent="1">
          <mxGeometry x="240" y="170" width="120" height="60" as="geometry" />
        </mxCell>
        <mxCell id="kvpLkumY8ABK4PItpuo1-12" style="edgeStyle=orthogonalEdgeStyle;rounded=0;orthogonalLoop=1;jettySize=auto;html=1;exitX=1;exitY=0.5;exitDx=0;exitDy=0;entryX=0;entryY=0.5;entryDx=0;entryDy=0;endArrow=none;endFill=0;" edge="1" parent="1" source="kvpLkumY8ABK4PItpuo1-3" target="kvpLkumY8ABK4PItpuo1-11">
          <mxGeometry relative="1" as="geometry" />
        </mxCell>
        <mxCell id="kvpLkumY8ABK4PItpuo1-3" value="Zwierzęta" style="rounded=0;whiteSpace=wrap;html=1;" vertex="1" parent="1">
          <mxGeometry x="240" y="320" width="120" height="60" as="geometry" />
        </mxCell>
        <mxCell id="kvpLkumY8ABK4PItpuo1-5" value="osługuje" style="text;html=1;strokeColor=none;fillColor=none;align=center;verticalAlign=middle;whiteSpace=wrap;rounded=0;" vertex="1" parent="1">
          <mxGeometry x="190" y="120" width="60" height="30" as="geometry" />
        </mxCell>
        <mxCell id="kvpLkumY8ABK4PItpuo1-8" value="kupuje" style="text;html=1;strokeColor=none;fillColor=none;align=center;verticalAlign=middle;whiteSpace=wrap;rounded=0;" vertex="1" parent="1">
          <mxGeometry x="300" y="270" width="60" height="30" as="geometry" />
        </mxCell>
        <mxCell id="kvpLkumY8ABK4PItpuo1-15" style="edgeStyle=orthogonalEdgeStyle;rounded=0;orthogonalLoop=1;jettySize=auto;html=1;exitX=0.5;exitY=1;exitDx=0;exitDy=0;entryX=0.5;entryY=0;entryDx=0;entryDy=0;endArrow=none;endFill=0;" edge="1" parent="1" source="kvpLkumY8ABK4PItpuo1-11" target="kvpLkumY8ABK4PItpuo1-14">
          <mxGeometry relative="1" as="geometry" />
        </mxCell>
        <mxCell id="kvpLkumY8ABK4PItpuo1-18" style="edgeStyle=orthogonalEdgeStyle;rounded=0;orthogonalLoop=1;jettySize=auto;html=1;exitX=0.5;exitY=0;exitDx=0;exitDy=0;entryX=0.5;entryY=1;entryDx=0;entryDy=0;endArrow=none;endFill=0;" edge="1" parent="1" source="kvpLkumY8ABK4PItpuo1-11" target="kvpLkumY8ABK4PItpuo1-17">
          <mxGeometry relative="1" as="geometry" />
        </mxCell>
        <mxCell id="kvpLkumY8ABK4PItpuo1-11" value="Sklep" style="rounded=0;whiteSpace=wrap;html=1;" vertex="1" parent="1">
          <mxGeometry x="480" y="320" width="120" height="60" as="geometry" />
        </mxCell>
        <mxCell id="kvpLkumY8ABK4PItpuo1-13" value="Przechowuje" style="text;html=1;strokeColor=none;fillColor=none;align=center;verticalAlign=middle;whiteSpace=wrap;rounded=0;" vertex="1" parent="1">
          <mxGeometry x="384" y="360" width="60" height="30" as="geometry" />
        </mxCell>
        <mxCell id="kvpLkumY8ABK4PItpuo1-14" value="Dostawcy" style="rounded=0;whiteSpace=wrap;html=1;" vertex="1" parent="1">
          <mxGeometry x="480" y="440" width="120" height="60" as="geometry" />
        </mxCell>
        <mxCell id="kvpLkumY8ABK4PItpuo1-16" value="Zaopatruje" style="text;html=1;strokeColor=none;fillColor=none;align=center;verticalAlign=middle;whiteSpace=wrap;rounded=0;" vertex="1" parent="1">
          <mxGeometry x="540" y="390" width="60" height="30" as="geometry" />
        </mxCell>
        <mxCell id="kvpLkumY8ABK4PItpuo1-21" style="edgeStyle=orthogonalEdgeStyle;rounded=0;orthogonalLoop=1;jettySize=auto;html=1;exitX=1;exitY=0.5;exitDx=0;exitDy=0;entryX=0;entryY=0.5;entryDx=0;entryDy=0;endArrow=none;endFill=0;" edge="1" parent="1" source="kvpLkumY8ABK4PItpuo1-17" target="kvpLkumY8ABK4PItpuo1-20">
          <mxGeometry relative="1" as="geometry" />
        </mxCell>
        <mxCell id="kvpLkumY8ABK4PItpuo1-17" value="Zamówienie" style="rounded=0;whiteSpace=wrap;html=1;" vertex="1" parent="1">
          <mxGeometry x="480" y="170" width="120" height="60" as="geometry" />
        </mxCell>
        <mxCell id="kvpLkumY8ABK4PItpuo1-19" value="Tworzy" style="text;html=1;strokeColor=none;fillColor=none;align=center;verticalAlign=middle;whiteSpace=wrap;rounded=0;" vertex="1" parent="1">
          <mxGeometry x="540" y="260" width="60" height="30" as="geometry" />
        </mxCell>
        <mxCell id="kvpLkumY8ABK4PItpuo1-20" value="Faktura" style="rounded=0;whiteSpace=wrap;html=1;" vertex="1" parent="1">
          <mxGeometry x="680" y="170" width="120" height="60" as="geometry" />
        </mxCell>
        <mxCell id="kvpLkumY8ABK4PItpuo1-22" value="Generuje" style="text;html=1;strokeColor=none;fillColor=none;align=center;verticalAlign=middle;whiteSpace=wrap;rounded=0;" vertex="1" parent="1">
          <mxGeometry x="610" y="160" width="60" height="30" as="geometry" />
        </mxCell>
      </root>
    </mxGraphModel>
  </diagram>
</mxfile>
